<svg width="512" height="512" viewBox="0 0 512 512" fill="none" xmlns="http://www.w3.org/2000/svg">
<g id="tv 1">
<g id="XMLID 1372">
<path id="XMLID 1863" d="M482 138H30C18.954 138 10 146.954 10 158V482C10 493.046 18.954 502 30 502H482C493.046 502 502 493.046 502 482V158C502 146.954 493.046 138 482 138Z" fill="#A0C8FF"/>
<path id="XMLID 1862" d="M66 194H362V446H66V194Z" fill="#F8F8F8"/>
<path id="XMLID 2045" d="M66 194H140V446H66V194Z" fill="#D5EA7A"/>
<path id="XMLID 2044" d="M140 194H214V446H140V194Z" fill="#BFE5F6"/>
<path id="XMLID 2043" d="M214 194H288V446H214V194Z" fill="#F0C980"/>
<path id="XMLID 2042" d="M288 194H362V446H288V194Z" fill="#FF7A7A"/>
<path id="XMLID 1861" d="M432 446C448.569 446 462 432.569 462 416C462 399.431 448.569 386 432 386C415.431 386 402 399.431 402 416C402 432.569 415.431 446 432 446Z" fill="#F0C980"/>
<path id="XMLID 1860" d="M305 138C305 110.938 283.062 89 256 89C228.938 89 207 110.938 207 138H305Z" fill="#B7BCCE"/>
<g id="XMLID 637">
<path id="XMLID 640" d="M482 128H314.135C312.647 119.326 309.263 111.295 304.42 104.347L391.696 17.071C395.601 13.166 395.601 6.834 391.696 2.928C387.791 -0.976 381.459 -0.976 377.553 2.928L290.383 90.099C280.694 83.125 268.823 79 256 79C243.37 79 231.664 83.002 222.056 89.787L177.134 44.865C173.229 40.961 166.897 40.961 162.991 44.865C159.086 48.77 159.086 55.102 162.991 59.008L207.891 103.908C202.882 110.956 199.383 119.141 197.863 128H30C13.458 128 0 141.458 0 158V482C0 498.542 13.458 512 30 512H482C498.542 512 512 498.542 512 482V158C512 141.458 498.542 128 482 128ZM256 99C274.049 99 289.267 111.326 293.695 128H218.305C222.733 111.325 237.951 99 256 99ZM492 482C492 487.514 487.514 492 482 492H30C24.486 492 20 487.514 20 482V158C20 152.486 24.486 148 30 148H482C487.514 148 492 152.486 492 158V482Z" fill="black"/>
<path id="XMLID 741" d="M362 184H66C60.477 184 56 188.478 56 194V446C56 451.522 60.477 456 66 456H362C367.523 456 372 451.522 372 446V194C372 188.477 367.523 184 362 184ZM278 204V436H224V204H278ZM76 204H130V275C130 280.522 134.477 285 140 285C145.523 285 150 280.522 150 275V204H204V436H150V365C150 359.478 145.523 355 140 355C134.477 355 130 359.478 130 365V436H76V204ZM352 436H298V204H352V436Z" fill="black"/>
<path id="XMLID 746" d="M432 375C409.944 375 392 392.944 392 415C392 437.056 409.944 455 432 455C454.056 455 472 437.056 472 415C472 392.944 454.056 375 432 375ZM432 435C420.972 435 412 426.028 412 415C412 403.972 420.972 395 432 395C443.028 395 452 403.972 452 415C452 426.028 443.028 435 432 435Z" fill="black"/>
<path id="XMLID 747" d="M462 328H402C396.477 328 392 332.478 392 338C392 343.522 396.477 348 402 348H462C467.523 348 472 343.522 472 338C472 332.478 467.523 328 462 328Z" fill="black"/>
<g id="knob">
<path id="XMLID 754" d="M462.625 411H436.375C433.959 411 432 412.791 432 415C432 417.209 433.959 419 436.375 419H462.625C465.041 419 467 417.209 467 415C467 412.791 465.041 411 462.625 411Z" fill="white"/>
</g>
<path id="XMLID 748" d="M462 280H402C396.477 280 392 284.478 392 290C392 295.522 396.477 300 402 300H462C467.523 300 472 295.522 472 290C472 284.478 467.523 280 462 280Z" fill="black"/>
<path id="XMLID 749" d="M462 232H402C396.477 232 392 236.478 392 242C392 247.522 396.477 252 402 252H462C467.523 252 472 247.522 472 242C472 236.478 467.523 232 462 232Z" fill="black"/>
<path id="XMLID 750" d="M462 184H402C396.477 184 392 188.478 392 194C392 199.522 396.477 204 402 204H462C467.523 204 472 199.522 472 194C472 188.478 467.523 184 462 184Z" fill="black"/>
<path id="XMLID 753" d="M140 330C142.63 330 145.21 328.93 147.07 327.069C148.93 325.21 150 322.63 150 320C150 317.37 148.93 314.79 147.07 312.93C145.21 311.07 142.63 310 140 310C137.37 310 134.79 311.069 132.93 312.93C131.07 314.79 130 317.37 130 320C130 322.63 131.07 325.21 132.93 327.069C134.79 328.929 137.37 330 140 330Z" fill="black"/>
</g>
</g>
</g>
</svg>
